<svg viewBox="0 0 40 40" fill="none" xmlns="http://www.w3.org/2000/svg">
  <rect width="40" height="40" rx="10" fill="#c0392b"/>
  <path d="M20 6 L30 11 L30 21 C30 26.5 25.5 31 20 33 C14.5 31 10 26.5 10 21 L10 11 Z" fill="white" opacity="0.15" stroke="white" stroke-width="1"/>
  <path d="M20 14 C20 14 23 17 23 20 C23 21.6 21.7 22.8 20 23 C18.3 22.8 17 21.6 17 20 C17 18 18.5 15.5 20 14Z" fill="white" opacity="0.9"/>
  <path d="M20 20 C20 20 21.5 21.5 21.5 23 C21.5 24 20.8 24.8 20 25 C19.2 24.8 18.5 24 18.5 23 C18.5 21.5 20 20 20 20Z" fill="#ff8c42" opacity="0.9"/>
</svg>
