<svg width="223" height="24" viewBox="0 0 223 24" fill="none" xmlns="http://www.w3.org/2000/svg">
<g clip-path="url(#clip0_57_163)">
<path d="M105.575 14.4567V18.1928C105.575 18.5039 106.184 19.1115 106.499 19.1115H128.37V23.8887H106.622C103.859 23.8887 100.873 20.6671 100.772 17.9453C101.495 11.7546 97.8883 1.192 106.988 0.120193C112.29 0.4203 118.008 -0.264434 123.261 0.120193C132.192 0.774304 131.247 14.4567 123.01 14.4567H105.575ZM105.575 9.55703H123.995C124.197 9.55703 124.594 9.08666 124.647 8.8576C124.753 8.38723 124.738 6.46777 124.677 5.94105C124.615 5.41433 124.322 5.09462 123.848 4.92803L106.746 4.90231C106.29 4.85331 105.576 5.38126 105.576 5.821V9.55703H105.575Z" fill="white"/>
<path d="M97.1962 0.125V4.90222H75.3253C74.7905 4.90222 74.4541 5.59798 74.4011 6.0659C74.3063 6.9013 74.167 9.20906 75.1343 9.50182L91.4654 9.55817C97.9405 9.96239 100.944 17.9109 95.8433 22.2362C95.1558 22.8192 93.204 23.8886 92.3304 23.8886H70.7059V19.2951C70.7059 19.2816 70.8771 19.1114 70.8907 19.1114H92.7001C93.0488 19.1114 93.4615 18.5589 93.5059 18.1976C93.5761 17.6206 93.5811 15.8188 93.4936 15.2602C93.4381 14.9074 93.2213 14.6453 92.891 14.5118L76.4367 14.4554C69.799 14.0071 67.0155 5.63962 72.4408 1.54469C73.1148 1.03635 74.878 0.125 75.6949 0.125H97.1962Z" fill="white"/>
<path d="M36.0807 0.125H31.2752V23.8886H36.0807V0.125Z" fill="white"/>
<path d="M0.101031 15.314C0.46452 12.2958 3.48579 9.55688 6.56991 9.55688H24.1283C24.0605 12.2052 22.0077 14.2386 19.3894 14.4615C15.0226 14.8326 10.1247 14.1798 5.70123 14.4505C5.36485 14.377 4.90648 15.0188 4.90648 15.2528V23.8885H0.101031C0.337607 21.1876 -0.216868 17.9489 0.101031 15.314Z" fill="#FE5000"/>
<path d="M0.100697 9.55694L0.837532 6.7984C1.86639 3.5695 6.22333 0.125 9.64999 0.125H28.9334V4.71848C28.9334 4.73195 28.7621 4.90222 28.7486 4.90222H8.91069C7.6699 4.90222 5.96335 6.21901 5.41996 7.31165C5.2721 7.60931 5.00349 8.68969 4.90738 8.76196C4.78539 8.85383 3.96724 9.00327 3.67521 9.12944C2.12638 9.80193 1.10738 10.6716 0.0994644 12.0056V9.55572L0.100697 9.55694Z" fill="white"/>
<path d="M38.4217 1.90105C38.5634 1.05095 39.6145 0.214328 40.4548 0.124908C41.4356 0.0195647 43.5019 0.0416134 44.4864 0.159206C47.0728 0.467888 48.2803 2.53067 49.7527 4.35581C53.9791 9.59727 58.007 15.0066 62.2062 20.2713C62.7706 20.7711 62.3258 20.2627 62.3258 20.1525V0.124908H67.2544V21.9899C67.2544 22.0438 66.9353 22.7199 66.8651 22.8277C66.4979 23.3924 65.9027 23.8162 65.2214 23.8885C62.6276 24.1653 59.3723 24.0661 57.6472 21.8637L43.2272 3.5547V23.8885H38.4217V1.90105Z" fill="white"/>
<path d="M223.001 0.125V4.90222L203.239 4.91692C201.539 4.88384 199.097 6.95397 199.097 8.63824V23.8886H194.168C194.246 19.0599 194.002 14.2031 194.306 9.3879C195.031 4.22483 198.89 0.649269 204.088 0.126225H223.001V0.125Z" fill="white"/>
<path d="M160.776 0.125004V4.71848C160.776 4.73196 160.605 4.90222 160.591 4.90222H141C139.405 4.90222 137.587 6.5277 137.058 7.96576C136.563 9.31686 136.564 14.6992 137.058 16.0466C137.587 17.4871 139.398 19.1102 141 19.1102H160.776V23.7036C160.776 23.7171 160.605 23.8874 160.591 23.8874H142.478C142.065 23.8874 140.934 23.5628 140.475 23.4292C131.412 20.8018 128.874 9.0633 136.075 2.94479C137.471 1.75906 140.644 0.123779 142.478 0.123779H160.776V0.125004Z" fill="white"/>
<path d="M167.922 0.125V12.9255C167.922 15.2957 170.624 18.0383 172.784 18.7488C174.741 19.3919 180.553 19.3135 182.494 18.592C184.576 17.8179 187.021 15.0924 187.021 12.803V0.125H191.826V11.4556C191.826 12.901 190.463 16.0025 189.66 17.2642C183.875 26.3458 170.327 26.069 164.944 16.7448C161.999 11.6442 163.261 5.74987 162.994 0.126225H167.922V0.125Z" fill="white"/>
<path d="M205.716 19.1407C209.083 18.5699 209.672 23.3593 206.767 23.8591C203.308 24.4544 202.773 19.6404 205.716 19.1407ZM207.556 22.8669C208.163 22.2642 208.274 21.2671 207.823 20.5408C206.675 18.6911 203.713 19.8928 204.489 22.263C204.872 23.4328 206.687 23.728 207.556 22.8669Z" fill="white"/>
<path d="M205.38 20.3362C205.836 20.3937 206.523 20.1745 206.865 20.5126C207.498 21.1434 206.636 21.5942 206.634 21.7436C206.634 21.8208 207.227 22.4884 207.226 22.6035C207.223 22.7383 206.926 22.8473 206.733 22.7285C206.604 22.6488 206.302 22.0241 206.155 21.8392C206.076 21.7399 206.159 21.6138 205.874 21.6848C205.849 22.1699 206.074 22.8803 205.38 22.786V20.3362ZM206.49 20.8274H205.873V21.1936H206.49V20.8274Z" fill="white"/>
</g>
<defs>
<clipPath id="clip0_57_163">
<rect width="223" height="24" fill="white"/>
</clipPath>
</defs>
</svg>
